<?xml version="1.0" standalone="no"?><!DOCTYPE svg PUBLIC "-//W3C//DTD SVG 1.1//EN" "http://www.w3.org/Graphics/SVG/1.1/DTD/svg11.dtd"><svg t="1742289490763" class="icon" viewBox="0 0 1024 1024" version="1.1" xmlns="http://www.w3.org/2000/svg" p-id="2069" xmlns:xlink="http://www.w3.org/1999/xlink" width="200" height="200"><path d="M149.229268 730.536585h-84.917073c-9.990244 0-19.980488-7.492683-19.980488-19.980487s7.492683-19.980488 19.980488-19.980488h84.917073c9.990244 0 19.980488 7.492683 19.980488 19.980488s-7.492683 19.980488-19.980488 19.980487zM149.229268 558.204878h-84.917073c-9.990244 0-19.980488-7.492683-19.980488-19.980488s7.492683-19.980488 19.980488-19.980488h84.917073c9.990244 0 19.980488 7.492683 19.980488 19.980488s-7.492683 19.980488-19.980488 19.980488zM149.229268 383.37561h-84.917073c-9.990244 0-19.980488-7.492683-19.980488-19.980488s9.990244-17.482927 19.980488-17.482927h84.917073c9.990244 0 19.980488 7.492683 19.980488 19.980488s-7.492683 17.482927-19.980488 17.482927zM940.956098 730.536585h-84.917074c-9.990244 0-19.980488-7.492683-19.980487-19.980487s7.492683-19.980488 19.980487-19.980488h84.917074c9.990244 0 19.980488 7.492683 19.980487 19.980488s-9.990244 19.980488-19.980487 19.980487zM940.956098 558.204878h-84.917074c-9.990244 0-19.980488-7.492683-19.980487-19.980488s7.492683-19.980488 19.980487-19.980488h84.917074c9.990244 0 19.980488 7.492683 19.980487 19.980488s-9.990244 19.980488-19.980487 19.980488zM940.956098 383.37561h-84.917074c-9.990244 0-19.980488-7.492683-19.980487-19.980488s7.492683-19.980488 19.980487-19.980488h84.917074c9.990244 0 19.980488 7.492683 19.980487 19.980488s-9.990244 19.980488-19.980487 19.980488zM696.195122 952.819512c-9.990244 0-19.980488-7.492683-19.980488-19.980488v-84.917073c0-9.990244 7.492683-19.980488 19.980488-19.980488s19.980488 7.492683 19.980488 19.980488v84.917073c-2.497561 9.990244-9.990244 19.980488-19.980488 19.980488zM518.868293 952.819512c-9.990244 0-19.980488-7.492683-19.980488-19.980488v-84.917073c0-9.990244 7.492683-19.980488 19.980488-19.980488s19.980488 7.492683 19.980487 19.980488v84.917073c-2.497561 9.990244-9.990244 19.980488-19.980487 19.980488zM314.068293 952.819512c-9.990244 0-19.980488-7.492683-19.980488-19.980488v-84.917073c0-9.990244 7.492683-19.980488 19.980488-19.980488s19.980488 7.492683 19.980487 19.980488v84.917073c0 9.990244-9.990244 19.980488-19.980487 19.980488zM696.195122 203.55122c-9.990244 0-19.980488-7.492683-19.980488-19.980488v-82.419512c0-9.990244 7.492683-19.980488 19.980488-19.980488s17.482927 9.990244 17.482927 19.980488v84.917073c0 9.990244-7.492683 17.482927-17.482927 17.482927zM518.868293 203.55122c-9.990244 0-19.980488-7.492683-19.980488-19.980488v-82.419512c0-9.990244 7.492683-19.980488 19.980488-19.980488s19.980488 7.492683 19.980487 19.980488v84.917073c-2.497561 9.990244-9.990244 17.482927-19.980487 17.482927zM314.068293 203.55122c-9.990244 0-19.980488-7.492683-19.980488-19.980488v-82.419512c0-9.990244 7.492683-19.980488 19.980488-19.980488s19.980488 7.492683 19.980487 19.980488v84.917073c0 9.990244-9.990244 17.482927-19.980487 17.482927z" fill="#5E4EFF" p-id="2070"></path><path d="M786.107317 855.414634h-561.951219c-37.463415 0-69.931707-29.970732-69.931708-69.931707V241.014634c0-37.463415 29.970732-69.931707 69.931708-69.931707h559.453658c37.463415 0 69.931707 29.970732 69.931707 69.931707v544.468293c0 39.960976-29.970732 69.931707-67.434146 69.931707z m-561.951219-644.370732c-17.482927 0-29.970732 14.985366-29.970732 29.970732v544.468293c0 17.482927 14.985366 29.970732 29.970732 29.970732h559.453658c17.482927 0 29.970732-14.985366 29.970732-29.970732V241.014634c0-17.482927-14.985366-29.970732-29.970732-29.970732h-559.453658z" fill="#5E4EFF" p-id="2071"></path><path d="M658.731707 730.536585h-307.2c-37.463415 0-69.931707-29.970732-69.931707-69.931707v-294.712195c0-37.463415 29.970732-69.931707 69.931707-69.931707h307.2c37.463415 0 69.931707 29.970732 69.931708 69.931707v297.209756c-2.497561 37.463415-32.468293 67.434146-69.931708 67.434146z m-307.2-397.112195c-17.482927 0-29.970732 14.985366-29.970731 29.970732v297.209756c0 17.482927 14.985366 29.970732 29.970731 29.970732h307.2c17.482927 0 29.970732-14.985366 29.970732-29.970732v-294.712195c0-17.482927-14.985366-29.970732-29.970732-29.970732h-307.2z" fill="#5E4EFF" p-id="2072"></path></svg>