<?xml version="1.0" standalone="no"?><!DOCTYPE svg PUBLIC "-//W3C//DTD SVG 1.1//EN" "http://www.w3.org/Graphics/SVG/1.1/DTD/svg11.dtd"><svg t="1742289445825" class="icon" viewBox="0 0 1024 1024" version="1.1" xmlns="http://www.w3.org/2000/svg" p-id="1129" xmlns:xlink="http://www.w3.org/1999/xlink" width="200" height="200"><path d="M479.744 311.296s525.312 72.192 537.6 148.48c12.288 75.776-159.744 452.096-279.552 484.352-119.808 32.256-724.48-159.744-726.528-238.08-3.072-108.032 70.656-262.656 468.48-394.752zM371.2 437.248c-46.592 46.08 158.72 66.048 183.296 62.976 24.576-3.072 105.984-87.552 89.088-96.768-16.896-9.216-185.856-33.792-185.856-33.792s-39.936 21.504-86.528 67.584z m274.944 44.032c-32.768 47.104 155.648 81.92 175.616 88.064 19.968 6.144 56.32-27.648 70.656-39.936 14.848-12.288 19.968-30.72 7.68-48.128-12.288-17.408-187.392-68.608-187.392-68.608s-33.792 21.504-66.56 68.608z m-234.496 250.88c21.504 36.864 234.496 59.392 234.496 59.392s121.856-111.616 140.288-161.792c-27.648-50.176-230.4-75.776-230.4-75.776C465.92 626.688 423.936 695.296 411.648 732.16z m-263.68-138.24c-100.864 89.088 93.696 113.152 141.312 110.592 37.376-2.048 159.232-125.952 168.448-150.528 9.216-24.576-168.96-62.464-168.96-62.464s-39.936 13.312-140.8 102.4z m200.704-346.624s53.76 88.064 155.648 47.616c0 0-50.176-75.776-155.648-47.616z m68.608-79.872s10.24 70.656 86.528 71.68c0.512 0-10.752-61.952-86.528-71.68z m183.808 0s-10.24 70.656-86.528 71.68c0 0 11.264-61.952 86.528-71.68z m76.288 79.872s-53.76 88.064-155.648 47.616c0.512 0 50.176-75.776 155.648-47.616zM506.368 186.88s-38.912-30.208 1.024-115.2c0 0 44.032 75.264-1.024 115.2z" p-id="1130"></path></svg>