<?xml version="1.0" standalone="no"?><!DOCTYPE svg PUBLIC "-//W3C//DTD SVG 1.1//EN" "http://www.w3.org/Graphics/SVG/1.1/DTD/svg11.dtd"><svg t="1745030400263" class="icon" viewBox="0 0 1024 1024" version="1.1" xmlns="http://www.w3.org/2000/svg" p-id="25895" xmlns:xlink="http://www.w3.org/1999/xlink" width="200" height="200"><path d="M484.8896 784.4352v229.376H150.8608l-1.2288-36.8128c0-145.3056 150.1184-263.168 335.36-263.168s335.36 117.76 335.36 263.168l-1.2288 36.8128h-334.08v-35.2768" fill="#F28731" p-id="25896"></path><path d="M818.9696 1022.6688H150.8096a8.832 8.832 0 0 1-8.8064-8.5504l-1.2288-36.8128v-0.3072a245.376 245.376 0 0 1 101.5808-192.9728 411.8272 411.8272 0 0 1 485.0176 0 245.5296 245.5296 0 0 1 101.5808 193.024v0.256l-1.2288 36.864a8.832 8.832 0 0 1-8.8064 8.5504z m-325.12-17.664h316.672l0.9216-28.16c0-140.1344-146.4832-254.1568-326.4512-254.1568s-326.2976 114.0224-326.4 254.1568l0.9216 28.16h316.672v-220.5696a8.832 8.832 0 0 1 17.664 0z m0 0" fill="#222222" p-id="25897"></path><path d="M537.8304 625.6128h-105.8304v99.2768s0 59.5456 52.8896 59.5456 52.9408-59.5456 52.9408-59.5456z m0 0" fill="#F7BFB0" p-id="25898"></path><path d="M484.8896 793.2416a55.9616 55.9616 0 0 1-54.3744-35.0208 92.16 92.16 0 0 1-7.3728-33.28v-108.0832h123.4176v108.1088a92.16 92.16 0 0 1-7.3728 33.28 55.9872 55.9872 0 0 1-54.4256 35.0208z m-44.0832-158.72v90.4448c0 2.048 0.768 50.7392 44.0832 50.7392a38.4 38.4 0 0 0 38.4-24.576 74.24 74.24 0 0 0 5.8368-26.1632v-90.4192z m0 0" fill="#222222" p-id="25899"></path><path d="M414.336 837.4784l-52.9408-105.8816 52.9408-17.664 70.5536 70.6048z m0 0" fill="#F28731" p-id="25900"></path><path d="M414.3104 846.1824a9.2928 9.2928 0 0 1-2.048-0.2048 8.6528 8.6528 0 0 1-5.8368-4.6592l-52.9408-105.8816a8.8064 8.8064 0 0 1 5.12-12.288l52.9408-17.664a8.7552 8.7552 0 0 1 9.0624 2.1504l70.5536 70.5536a8.576 8.576 0 0 1 2.56 6.8608 8.7296 8.7296 0 0 1-3.4816 6.4512l-70.6048 52.9408a8.8064 8.8064 0 0 1-5.2736 1.7408z m-40.4992-109.5168l43.6736 87.296 53.9648-40.4992-59.5456-59.5456z m0 0" fill="#222222" p-id="25901"></path><path d="M555.4944 837.4784l52.9408-105.8816-52.9408-17.664-70.6048 70.6048z m0 0" fill="#F28731" p-id="25902"></path><path d="M555.4688 846.1824a8.8064 8.8064 0 0 1-5.2736-1.7408l-70.6048-52.9408a8.96 8.96 0 0 1-3.5328-6.4512 8.8064 8.8064 0 0 1 2.56-6.8608l70.5536-70.5536a8.7552 8.7552 0 0 1 9.0624-2.1504l52.8896 17.664a8.6272 8.6272 0 0 1 5.376 4.9664 8.704 8.704 0 0 1-0.256 7.3216l-52.9408 105.8816a8.8832 8.8832 0 0 1-5.8368 4.6592 9.2928 9.2928 0 0 1-2.048 0.2048z m-57.1392-62.72l54.016 40.4992 43.6736-87.296-38.0928-12.8z m0 0" fill="#222222" p-id="25903"></path><path d="M873.1392 572.672l-70.6048-52.9408v-70.5792l70.6048 52.9408z m0 0" fill="#F8A800" p-id="25904"></path><path d="M881.9456 590.336l-88.2176-66.1504v-92.672l88.2176 66.2016z m-70.6048-75.008l52.9408 39.7312v-48.64l-52.9408-39.68z m0 0" fill="#222222" p-id="25905"></path><path d="M873.1392 643.2768l-70.6048-52.9408v-70.6048l70.6048 52.9408z m0 0" fill="#F8A800" p-id="25906"></path><path d="M881.9456 660.9408l-88.2176-66.2016v-92.6208l88.2176 66.1504z m-70.6048-75.008l52.9408 39.68v-48.4864l-52.9408-39.7312z m0 0" fill="#222222" p-id="25907"></path><path d="M873.1392 713.8304l-70.6048-52.8896V590.336l70.6048 52.9408z m0 0" fill="#F8A800" p-id="25908"></path><path d="M881.9456 731.4944l-88.2176-66.1504v-92.672l88.2176 66.2016z m-70.6048-75.008l52.9408 39.7312v-48.64l-52.9408-39.68z m0 0" fill="#222222" p-id="25909"></path><path d="M873.1392 537.3952l70.5536-52.9408v-70.5536l-70.5536 52.9408z m0 0" fill="#F8A800" p-id="25910"></path><path d="M864.4096 555.0592v-92.672l88.2688-66.1504v92.6208z m17.664-83.8144v48.4864l52.9408-39.68v-48.64z m0 0" fill="#222222" p-id="25911"></path><path d="M873.1392 608l70.5536-52.9408v-70.6048l-70.5536 52.9408z m0 0" fill="#F8A800" p-id="25912"></path><path d="M864.4096 625.6128V532.992l88.2688-66.1504v92.6208z m17.664-83.8144v48.64l52.9408-39.68v-48.64z m0 0" fill="#222222" p-id="25913"></path><path d="M873.1392 678.5536l70.5536-52.9408v-70.5536l-70.5536 52.9408z m0 0" fill="#F8A800" p-id="25914"></path><path d="M864.4096 696.2176v-92.672l88.2688-66.1504v92.6208z m17.664-83.8144v48.64l52.9408-39.7312v-48.64z m0 0" fill="#222222" p-id="25915"></path><path d="M873.1392 1005.0048a8.8064 8.8064 0 0 1-8.8576-8.8064v-335.36a8.832 8.832 0 1 1 17.664 0v335.36a8.8064 8.8064 0 0 1-8.8064 8.8064z m0 0" p-id="25916"></path><path d="M802.5344 802.0992h176.4608V855.04h-176.4608z" fill="#F7BFB0" p-id="25917"></path><path d="M987.8528 863.8464h-194.0992v-70.6048h194.0992z m-176.4864-17.664h158.72v-35.2768h-158.72z m0 0" fill="#222222" p-id="25918"></path><path d="M802.5344 855.04h176.4608v52.9408h-176.4608z" fill="#F7BFB0" p-id="25919"></path><path d="M987.8528 916.7872h-194.0992v-70.6048h194.0992z m-176.4864-17.664h158.72v-35.2768h-158.72z m0 0" fill="#222222" p-id="25920"></path><path d="M802.5344 907.9808h176.4608v52.9408h-176.4608z" fill="#F7BFB0" p-id="25921"></path><path d="M987.8528 969.728h-194.0992v-70.6048h194.0992z m-176.4864-17.664h158.72v-35.2768h-158.72z m0 0" fill="#222222" p-id="25922"></path><path d="M802.5344 960.896h176.4608v52.9408h-176.4608z" fill="#F7BFB0" p-id="25923"></path><path d="M987.8528 1022.6688h-194.0992V952.064h194.0992z m-176.4864-17.664h158.72V969.728h-158.72z m0 0" fill="#222222" p-id="25924"></path><path d="M749.5936 802.0992h52.9408v105.8816H749.5936z" fill="#F7BFB0" p-id="25925"></path><path d="M811.3408 916.7872h-70.5536v-123.5456h70.5536z m-52.9408-17.664h35.328v-88.2176h-35.328z m0 0" fill="#222222" p-id="25926"></path><path d="M167.296 391.6288a64.128 64.128 0 1 0 64-64.1536 64 64 0 0 0-64 64.1536z m0 0" fill="#F7BFB0" p-id="25927"></path><path d="M231.3984 464.5888a72.96 72.96 0 1 1 72.96-72.9088 72.9088 72.9088 0 0 1-72.96 72.9088z m0-128.2048A55.296 55.296 0 1 0 286.7456 391.68a55.296 55.296 0 0 0-55.3472-55.296z m0 0" fill="#222222" p-id="25928"></path><path d="M674.2784 391.6288a64.128 64.128 0 1 0 32.0512-55.552 64 64 0 0 0-32.0512 55.552z m0 0" fill="#F7BFB0" p-id="25929"></path><path d="M738.432 464.5888a72.9344 72.9344 0 1 1 72.9088-72.9856 72.8832 72.8832 0 0 1-72.9088 72.96z m0-128.2048a55.2704 55.2704 0 1 0 55.296 55.2448 55.3472 55.3472 0 0 0-55.296-55.2448z m0 0" fill="#222222" p-id="25930"></path><path d="M743.296 282.0608l0.9216 123.1872c0 150.8864-114.8416 273.2032-256.4608 273.2032S231.2448 556.1344 231.2448 405.248l0.9216-123.1872s43.8272-238.848 255.5904-238.848 255.5392 238.848 255.5392 238.848z m0 0" fill="#F7BFB0" p-id="25931"></path><path d="M487.7568 687.4112a256 256 0 0 1-187.8016-82.8416 289.1008 289.1008 0 0 1-77.5168-199.2192l0.9216-124.0064 0.1536-0.768a385.4592 385.4592 0 0 1 49.6128-122.5216 275.6352 275.6352 0 0 1 80.5376-84.7872 251.4176 251.4176 0 0 1 268.2368 0 274.9184 274.9184 0 0 1 80.4864 84.7872 388.3264 388.3264 0 0 1 49.6128 122.5216l0.1536 0.768v0.768l0.9216 123.1872a289.792 289.792 0 0 1-77.5168 199.2704 256.1792 256.1792 0 0 1-187.8016 82.8416z m-246.7328-404.48l-0.9216 122.368c0 145.7152 111.0528 264.3456 247.6544 264.3456s247.6544-118.6304 247.6544-264.3968l-0.9216-122.3168a376.832 376.832 0 0 0-47.3088-116.0704 230.5792 230.5792 0 0 0-398.848 0 376.832 376.832 0 0 0-47.3088 116.0704z m0 0" fill="#222222" p-id="25932"></path><path d="M254.592 455.7312c0 12.8 18.2272 23.296 40.8064 23.296s40.8064-10.3936 40.8064-23.296-18.2784-23.296-40.8064-23.296-40.8064 10.4448-40.8064 23.296z m0 0M639.2832 455.7312c0 12.8 18.2784 23.296 40.8064 23.296s40.8064-10.3936 40.8064-23.296-18.2784-23.296-40.8064-23.296-40.8064 10.4448-40.8064 23.296z m0 0" fill="#ED8780" p-id="25933"></path><path d="M674.2784 354.9696h-18.2784a34.944 34.944 0 0 0-56.6784 0h-18.304a8.8064 8.8064 0 0 0 0 17.6128h11.8272a26.6752 26.6752 0 0 0-0.1536 2.8672 34.9696 34.9696 0 1 0 69.9392 0 26.624 26.624 0 0 0 0-2.8672h11.776a8.8064 8.8064 0 0 0 0-17.6128z m-279.808 0h-18.2528a34.9696 34.9696 0 0 0-56.6784 0h-18.2784a8.8064 8.8064 0 1 0 0 17.6128h11.776a26.6752 26.6752 0 0 0-0.1536 2.8672 34.9696 34.9696 0 1 0 69.9392 0v-2.8672h11.776a8.8064 8.8064 0 0 0 0-17.6128z m0 0" fill="#222222" p-id="25934"></path><path d="M394.4704 573.6448a378.4192 378.4192 0 0 0 186.5216 0" fill="#F7BFB0" p-id="25935"></path><path d="M487.7568 594.0224a297.3696 297.3696 0 0 1-96.3584-12.2368 8.832 8.832 0 1 1 6.144-16.5376 289.7664 289.7664 0 0 0 90.2144 11.1104 286.08 286.08 0 0 0 90.1632-11.1104 8.832 8.832 0 0 1 6.1952 16.5376 297.728 297.728 0 0 1-96.3584 12.2368z m0 0" fill="#222222" p-id="25936"></path><path d="M751.3344 276.5312c0-71.8336-534.1184-71.8336-534.1184 0a267.0592 267.0592 0 0 1 534.1184 0z m0 0" fill="#EAC496" p-id="25937"></path><path d="M751.3344 285.3376a8.8064 8.8064 0 0 1-8.8576-8.8064c0-8.3456-19.9168-21.6576-76.1856-31.744a1251.328 1251.328 0 0 0-364.0832 0c-56.32 10.0864-76.1856 23.3984-76.1856 31.744a8.832 8.832 0 0 1-17.664 0 275.8912 275.8912 0 1 1 551.7824 0 8.8064 8.8064 0 0 1-8.8064 8.8064zM484.2752 18.2784A258.56 258.56 0 0 0 227.4048 249.7536a221.312 221.312 0 0 1 71.68-22.3232 1265.5872 1265.5872 0 0 1 370.3296 0 220.4416 220.4416 0 0 1 71.68 22.3232A258.56 258.56 0 0 0 484.2752 18.2784z m0 0" fill="#222222" p-id="25938"></path><path d="M484.8384 131.6352C241.2288 131.6352 43.6992 202.752 43.6992 290.3552c0 43.264 45.6704 82.432 123.5456 111.104a42.9824 42.9824 0 0 1 0-14.0288c0-63.3856 142.1824-114.7392 317.5936-114.7392s317.6448 51.3536 317.6448 114.7392a42.9824 42.9824 0 0 1 0 14.0288c77.8752-28.672 123.4944-67.84 123.4944-111.104 0-87.7056-197.4784-158.72-441.1392-158.72z m0 0" fill="#D2AB6C" p-id="25939"></path><path d="M802.5088 410.2912a8.8064 8.8064 0 0 1-8.3456-11.6224 15.5648 15.5648 0 0 0 0-5.5296 53.0176 53.0176 0 0 1-0.3584-5.6832c0-26.2656-31.7952-52.7872-87.1936-72.8064a759.0144 759.0144 0 0 0-443.2384 0c-55.3984 20.0192-87.1936 46.5408-87.1936 72.8064a53.0176 53.0176 0 0 1-0.3584 5.6832 15.5648 15.5648 0 0 0 0 5.5296 8.832 8.832 0 0 1-11.4176 11.1104c-83.3536-30.72-129.28-73.0624-129.28-119.3984s47.9744-89.2416 135.0656-120.576a1077.2992 1077.2992 0 0 1 629.76 0c87.04 31.3344 135.0656 74.24 135.0656 120.576s-45.9264 88.7296-129.3312 119.3984a8.7552 8.7552 0 0 1-3.0208 0.512z m-317.6448-146.3808a694.1952 694.1952 0 0 1 227.584 34.1504c63.7952 23.04 98.8672 54.7328 98.8672 89.3952v1.1776a260.7616 260.7616 0 0 0 76.16-43.8016 74.24 74.24 0 0 0 29.6448-54.4256c0-37.8368-44.9536-75.776-123.392-103.9872a1060.9152 1060.9152 0 0 0-617.8816 0C97.4592 214.5792 52.5056 252.5696 52.5056 290.4064a74.24 74.24 0 0 0 29.6704 54.4256 260.7616 260.7616 0 0 0 76.2368 43.8272v-1.1776c0-34.6624 35.072-66.4064 98.8672-89.3952a694.656 694.656 0 0 1 227.584-34.1504z m0 0" fill="#222222" p-id="25940"></path><path d="M873.1136 802.0992h105.7792v211.7376h-105.8816" fill="#F7BFB0" p-id="25941"></path><path d="M987.8272 1022.6688h-114.688v-17.664h97.024v-194.0992h-97.024v-17.664h114.688z m0 0" fill="#222222" p-id="25942"></path><path d="M714.3168 1013.8112H255.3856v-247.04l70.6048-35.2768v211.7632h317.5936v-211.7632l70.6048 35.2768z m0 0" fill="#72AF26" p-id="25943"></path><path d="M723.1232 1022.6688H246.7072V761.344l88.2176-44.1344v217.2416h300.0576v-217.2416l88.2176 44.1344z m-458.8032-17.664h441.1392v-232.7552l-52.8896-26.4704v206.2848h-335.36v-206.2848l-52.9408 26.4704z m0 0" fill="#222222" p-id="25944"></path></svg>