<?xml version="1.0" standalone="no"?><!DOCTYPE svg PUBLIC "-//W3C//DTD SVG 1.1//EN" "http://www.w3.org/Graphics/SVG/1.1/DTD/svg11.dtd"><svg t="1744870675154" class="icon" viewBox="0 0 1024 1024" version="1.1" xmlns="http://www.w3.org/2000/svg" p-id="9196" xmlns:xlink="http://www.w3.org/1999/xlink" width="200" height="200"><path d="M458.666667 375.808c31.573333-66.56 49.408-99.84 53.333333-99.84 3.925333 0 21.717333 33.28 53.333333 99.84h352V896h-810.666666V375.808h352zM336.042667 717.653333c46.506667 0 84.138667-36.608 84.138666-81.749333 0-45.141333-37.674667-81.749333-84.138666-81.749333s-84.096 36.608-84.096 81.749333c0 45.141333 37.632 81.749333 84.096 81.749333z m267.690666-163.498666v163.498666h53.546667v-163.498666H603.733333z m107.093334 0v163.498666h53.504v-163.498666H710.826667zM355.114667 252.202667c-9.472 4.992-33.92-1.578667-43.306667-18.389334-8.746667-15.786667-3.114667-41.557333 5.632-46.506666 122.197333-78.890667 259.754667-78.890667 394.325333-1.152 6.4 2.816 8.277333 25.216 0 41.984-7.978667 16.213333-25.898667 26.965333-32 24.064-122.88-77.269333-213.333333-76.117333-324.650666 0z" fill="#0095FF" p-id="9197"></path></svg>