<?xml version="1.0" standalone="no"?><!DOCTYPE svg PUBLIC "-//W3C//DTD SVG 1.1//EN" "http://www.w3.org/Graphics/SVG/1.1/DTD/svg11.dtd"><svg t="1742289465768" class="icon" viewBox="0 0 1044 1024" version="1.1" xmlns="http://www.w3.org/2000/svg" p-id="1590" xmlns:xlink="http://www.w3.org/1999/xlink" width="203.90625" height="200"><path d="M986.591375 0H57.422301A57.420561 57.420561 0 0 0 0.00174 57.855565v704.271878a57.855565 57.855565 0 0 0 57.420561 57.42056h929.169074A57.855565 57.855565 0 0 0 1044.011935 762.127443V57.855565A57.855565 57.855565 0 0 0 986.591375 0z m-16.530162 746.032285H73.952462V74.820731h896.108751z" fill="#009245" p-id="1591"></path><path d="M335.82502 936.564146m21.750212 0l317.553101 0q21.750212 0 21.750212 21.750213l0 43.935429q0 21.750212-21.750212 21.750212l-317.553101 0q-21.750212 0-21.750212-21.750212l0-43.935429q0-21.750212 21.750212-21.750213Z" fill="#009245" p-id="1592"></path><path d="M447.621111 390.198811l127.021241 140.506372 11.745114 16.095157 233.162277-169.216653-48.285471-66.55565-171.826678 124.411215-145.726423-160.951571-56.985557 51.330501-195.316907 157.906542 51.765505 63.945624 194.446899-157.471537z" fill="#009245" p-id="1593"></path></svg>