<?xml version="1.0" standalone="no"?><!DOCTYPE svg PUBLIC "-//W3C//DTD SVG 1.1//EN" "http://www.w3.org/Graphics/SVG/1.1/DTD/svg11.dtd"><svg t="1745030090050" class="icon" viewBox="0 0 1024 1024" version="1.1" xmlns="http://www.w3.org/2000/svg" p-id="24658" xmlns:xlink="http://www.w3.org/1999/xlink" width="200" height="200"><path d="M512 512m-512 0a512 512 0 1 0 1024 0 512 512 0 1 0-1024 0Z" fill="#e8c97b" p-id="24659"></path><path d="M352.88 892.32c-7.584-4-3.36-17.2-1.6-23.36 19.904-56.944 37.024-91.92 54.544-153.072 15.808-61.088 31.952-124.48 55.248-183.152l8.352 2.896c-3.2 10.72-12.864 48.96-24.208 96.688-26.288 110.48-66.608 271.744-92.336 260z m77.76-126.208c19.12 11.52 70.128-10.8 87.52-19.008 45.536-21.536 79.872-89.36 94.464-135.904l7.36-24.16c-36.224 54.24-88.304 61.504-148.976 80.8-29.984 9.392-59.6 86.72-40.368 98.272z m49.824-127.952c18.912 0 44.128-7.28 74.944-21.632 43.584-20.304 67.584-53.44 80.032-77.664 10.96-21.328 15.232-37.696 18.496-60.368l-8.192 9.024c-14.512 16.016-58.4 29.888-97.088 42.112-19.296 6.096-42.24 10.864-57.072 24.64-28.224 26.24-68.848 83.888-11.12 83.888z" fill="#FFFFFF" p-id="24660"></path><path d="M518 527.456c-9.92 0-41.28-4.224-46.208-13.6-2.224-4-1.664-12.352 1.472-21.712 3.712-11.088 16.32-38.608 53.024-54.928 24.768-11.008 49.344-15.168 73.12-19.2 24.192-4.096 47.04-7.984 66.56-18.8l8.976-4.976-3.68 9.568c-0.08 0.16-7.008 17.888-21.088 39.328-13.056 19.888-35.2 47.328-66.512 65.168-22.304 12.704-44.4 19.152-65.664 19.152z m-68.208-25.024c33.824-20.448 46.192-63.264 39.84-100.592-9.904-58.4-40.112-68.352-34.4-136.08l0.896-10.48-7.28 7.584c-0.672 0.688-16.672 17.504-30.336 45.84-12.608 26.16-25.36 67.376-14.48 115.168 5.456 23.872 20.24 69.296 45.76 78.56z m-81.84 100.528c-35.68-64.4-19.456-157.248 19.44-216.368 5.6 91.776 81.28 156.992 22.56 240.656-18.176 5.76-33.856-9.616-42-24.288z" fill="#FFFFFF" p-id="24661"></path><path d="M388.736 743.456l-2.304-0.224c-27.92-3.04-62-40.08-75.2-63.872-25.392-45.824-15.104-121.264-3.008-171.04 21.52 63.424 46.608 78.832 81.712 130.112 14.944 21.856 18.208 47.344 12.032 72.864a111.232 111.232 0 0 1-12 30.192l-1.232 1.968z m79.792-425.168c-11.312-5.904 19.68-50.992 23.84-57.504 11.552-17.968 34.848-51.68 61.312-75.456l32.4-29.12-25.728 35.168c-2.352 3.232-58.112 79.744-77.6 118.512-2.464 5.44-7.92 11.216-14.224 8.4z m88.4 79.168c4.544 0 10.208-4.48 12.704-8.16 51.408-110.672 123.088-185.792 123.808-186.528l30.384-31.584-36.208 24.688c-21.04 14.368-55.2 55.04-80.144 88.32-30.688 40.944-52.72 76.704-56.08 91.088-2.096 8.64-3.504 17.92 1.984 21.216 1.072 0.64 2.272 0.96 3.552 0.96z m-44-4.064c9.76 0 15.904-13.616 17.104-16.528 69.488-146.864 156.32-236.032 157.168-236.912l1.568-1.6-5.76-6.544-1.776 1.36c-17.008 12.96-63.264 66.256-97.712 107.968-15.68 18.976-36.416 54.032-50.592 80.528-11.024 20.56-29.248 56.512-27.584 66.24a6 6 0 0 0 3.664 4.736 10.88 10.88 0 0 0 3.904 0.752z m-26.016-27.616a13.312 13.312 0 0 0 10.912-6.336C515.776 300 620.8 157.632 621.856 156.192l1.376-1.856-6.896-5.552-1.52 1.744c-39.744 45.44-134.864 170.96-137.056 196.448-0.592 6.816-0.336 18.8 9.152 18.8z m105.136 31.68c6.4 0 10.176-7.488 10.912-9.12 19.472-38.768 75.232-115.28 77.6-118.528l25.728-35.168-32.4 29.12c-26.464 23.792-49.76 57.488-61.312 75.472-13.792 21.488-27.456 46.656-26.832 53.168a5.12 5.12 0 0 0 2.992 4.32c1.072 0.48 2.192 0.736 3.312 0.736z" fill="#FFFFFF" p-id="24662"></path></svg>