<?xml version="1.0" standalone="no"?><!DOCTYPE svg PUBLIC "-//W3C//DTD SVG 1.1//EN" "http://www.w3.org/Graphics/SVG/1.1/DTD/svg11.dtd"><svg t="1744870747604" class="icon" viewBox="0 0 1024 1024" version="1.1" xmlns="http://www.w3.org/2000/svg" p-id="14760" xmlns:xlink="http://www.w3.org/1999/xlink" width="200" height="200"><path d="M920.1 145.4l6.1 6.1c6.3 6.3 7.6 16.1 3.2 23.8-9.3 16.5-16.9 33.9-22.8 51.8 29.8-2.2 53.3-27.1 53.3-57.4 0-31.8-25.8-57.7-57.7-57.7-30.2 0-54.9 23.2-57.4 52.7 17.8-5.8 35-13.4 51.3-22.6 7.6-4.2 17.9-2.8 24 3.3zM591.7 487.1l-7.2-7.2c-6.2-6.2-7.6-15.9-3.3-23.6 8.4-15.2 15.3-31.1 20.8-47.5-30.1 2-53.9 26.9-53.9 57.5 0 31.8 25.8 57.7 57.7 57.7 30.8 0 55.9-24.2 57.5-54.5-16.6 5.5-32.7 12.5-48 21-7.5 4-17.6 2.5-23.6-3.4z m11.2-259.9c-5.7-17.5-13-34.4-22-50.4-4.3-7.7-2.9-17.5 3.3-23.7l6.8-6.8c6-6 16.2-7.5 23.7-3.3 15.5 8.6 31.7 15.7 48.5 21.3-2.8-29.3-27.4-52.2-57.4-52.2-31.8 0-57.7 25.8-57.7 57.7 0.1 30.7 24.3 55.9 54.8 57.4z m304.6 181.6c5.7 16.9 12.9 33.3 21.6 48.9 4.3 7.7 3 17.5-3.2 23.7l-6.4 6.4c-3.7 3.7-8.7 5.8-14 5.8-3.3 0-6.7-0.9-9.6-2.5-16.3-9.1-33.3-16.6-51-22.4 1.4 30.6 26.6 55.1 57.5 55.1 31.8 0 57.7-25.8 57.7-57.7-0.1-30-23.2-54.7-52.6-57.3z m-2.1 71.8c1.8 0 3.5-0.7 4.7-2l6.4-6.4c2.1-2.1 2.6-5.4 1.1-8-25.1-44.8-38.4-95.7-38.4-147.4 0-51.9 13.4-103 38.8-148 1.5-2.6 1-5.9-1.1-8.1l-6.1-6.1c-2.1-2.1-5.5-2.5-8.1-1.1-44.9 25.4-96.1 38.8-148 38.8-51.2 0-101.9-13.1-146.4-37.9-2.6-1.4-5.9-1-8 1.1l-6.8 6.8c-2.1 2.1-2.6 5.4-1.1 8 24.8 44.6 37.9 95.2 37.9 146.4 0 51-13 101.4-37.6 145.8-1.4 2.6-1 5.9 1.1 8l7.1 7.1c2.1 2.1 5.4 2.5 8 1.1 44.4-24.6 94.8-37.6 145.8-37.6 51.6 0 102.6 13.3 147.4 38.4 1 0.8 2.2 1.1 3.3 1.1zM754.1 388c-38.7 0-70-31.3-70-70s31.3-70 70-70 70 31.3 70 70c0 38.6-31.4 70-70 70zM342.7 494.2c65.5 0 118.5-53.1 118.5-118.6 0-65.4-53-118.4-118.5-118.4-65.4 0-118.5 53.1-118.5 118.4 0 65.5 53.1 118.6 118.5 118.6z m377.2 102.5l-75 89.7c0 1.5-24.9-36.8-32.9-49.2-41.7-63.9-56.1-119.6-141.9-119.6l-127.4 0.1-127.4-0.1C101.1 517.6 64 547 64 671.4V912h98.3l5.2-209.5H192V912h301.5V675.2s63 87.8 82.3 118.1c28.5 44.5 58.5 58.2 90.7 17.9l127.3-153.7c39.6-51.7-32.2-106.1-73.9-60.8z" p-id="14761"></path></svg>