<?xml version="1.0" standalone="no"?><!DOCTYPE svg PUBLIC "-//W3C//DTD SVG 1.1//EN" "http://www.w3.org/Graphics/SVG/1.1/DTD/svg11.dtd"><svg t="1744870759768" class="icon" viewBox="0 0 1024 1024" version="1.1" xmlns="http://www.w3.org/2000/svg" p-id="15801" xmlns:xlink="http://www.w3.org/1999/xlink" width="200" height="200"><path d="M798.72 256.8192c20.2752 0 36.864 16.5888 36.864 36.864v513.024c0 20.2752-16.5888 36.864-36.864 36.864H225.28c-20.2752 0-36.864-16.5888-36.864-36.864V293.6832c0-20.2752 16.5888-36.864 36.864-36.864h573.44m0-45.056H225.28c-45.2608 0-81.92 36.6592-81.92 81.92v513.024c0 45.2608 36.6592 81.92 81.92 81.92h573.44c45.2608 0 81.92-36.6592 81.92-81.92V293.6832c0-45.2608-36.6592-81.92-81.92-81.92z" fill="#260A50" p-id="15802"></path><path d="M365.3632 135.3728c-12.4928 0-22.528 10.0352-22.528 22.528v147.456c0 12.4928 10.0352 22.528 22.528 22.528s22.528-10.0352 22.528-22.528v-147.456c0-12.4928-10.0352-22.528-22.528-22.528zM655.7696 135.3728c-12.4928 0-22.528 10.0352-22.528 22.528v147.456c0 12.4928 10.0352 22.528 22.528 22.528s22.528-10.0352 22.528-22.528v-147.456c0-12.4928-10.0352-22.528-22.528-22.528zM880.64 426.8032H143.36v45.056h737.28z" fill="#260A50" p-id="15803"></path><path d="M328.4992 595.5584m-36.864 0a36.864 36.864 0 1 0 73.728 0 36.864 36.864 0 1 0-73.728 0Z" fill="#F04FC0" p-id="15804"></path><path d="M504.677159 631.949463a36.864 36.864 0 1 0 11.811854-72.77567 36.864 36.864 0 1 0-11.811854 72.77567Z" fill="#F04FC0" p-id="15805"></path><path d="M692.6336 595.5584m-36.864 0a36.864 36.864 0 1 0 73.728 0 36.864 36.864 0 1 0-73.728 0Z" fill="#F04FC0" p-id="15806"></path></svg>