<?xml version="1.0" standalone="no"?><!DOCTYPE svg PUBLIC "-//W3C//DTD SVG 1.1//EN" "http://www.w3.org/Graphics/SVG/1.1/DTD/svg11.dtd"><svg t="1744870611891" class="icon" viewBox="0 0 1024 1024" version="1.1" xmlns="http://www.w3.org/2000/svg" p-id="7090" xmlns:xlink="http://www.w3.org/1999/xlink" width="200" height="200"><path d="M743.584 213.344a64 64 0 0 1 64 64v129.888a254.112 254.112 0 0 0-64-19.68V277.344H188.896v469.312l279.232 0.032c10.752 23.456 24.96 45.024 41.984 64H188.896a64 64 0 0 1-64-64V277.312a64 64 0 0 1 64-64h554.688z m180.992 218.144a24.8 24.8 0 0 1 25.6-0.896 25.536 25.536 0 0 1 12.928 22.496c-0.32 5.408-2.72 53.792-13.824 110.72-15.008 76.672-38.4 131.264-69.408 162.368-30.976 31.2-78.176 47.616-136.8 47.616-2.688 0-5.376 0-8.096-0.096-25.6-0.608-48.096-4.096-63.36-7.104a25.536 25.536 0 0 1-1.44 2.112c-4.48 8.8-8.896 17.984-13.184 27.488a25.184 25.184 0 0 1-29.6 13.504 24.48 24.48 0 0 1-16.096-15.008 25.024 25.024 0 0 1 0.576-19.008c3.424-7.584 6.912-14.976 10.528-22.176a203.584 203.584 0 0 1-10.72-2.912c-55.584-16.416-93.12-46.208-111.584-88.416-15.424-35.104-16.608-78.688-3.52-126.08 8.416-30.4 20.224-53.504 23.616-59.808l0.32-0.512a24.608 24.608 0 0 1 30.176-11.104c58.688 21.824 90.688 61.12 107.392 91.104 1.408-2.176 2.88-4.288 4.32-6.272 35.776-50.24 96-84.416 153.472-87.232 59.68-2.912 99.776-25.44 107.456-30.016z m-14.88 61.696a300.032 300.032 0 0 1-91.424 18.592c-32.576 1.6-82.496 20-115.776 66.624-14.08 19.776-28.224 49.696-28.608 90.56 23.296-30.272 48.512-54.4 75.712-71.872 40.672-26.208 72.384-28.704 81.184-28.8h0.32c13.376 0 24.48 10.688 24.896 24a24.768 24.768 0 0 1-23.616 25.408h-1.6c-5.312 0.32-28.096 2.688-58.592 23.488-26.304 17.92-51.392 44.896-74.4 79.68 39.808 5.824 108.608 8.832 146.88-29.472 41.728-41.92 58.72-143.52 65.024-198.208z m-355.808 27.2c-11.2 27.712-27.2 80.192-8.8 122.112 9.984 22.72 29.408 40.384 57.984 52.704a125.184 125.184 0 0 0-3.584-5.312c-15.68-22.304-32.32-40-33.408-41.216a21.92 21.92 0 0 1-6.08-17.792 20.96 20.96 0 0 1 9.984-14.976 24.96 24.96 0 0 1 30.304 4.384c2.784 2.88 12.992 13.792 24.992 28.992 1.216-13.28 3.616-25.6 6.816-36.896a25.92 25.92 0 0 1-7.616-10.88 149.024 149.024 0 0 0-70.592-81.12z m-212.992 100.96v64H250.24v-64h90.656z m64-128v64H250.24v-64h154.656z m106.688-149.344v64H250.24v-64h261.344z" fill="#67CD90" p-id="7091"></path></svg>