<?xml version="1.0" standalone="no"?><!DOCTYPE svg PUBLIC "-//W3C//DTD SVG 1.1//EN" "http://www.w3.org/Graphics/SVG/1.1/DTD/svg11.dtd"><svg t="1744870597038" class="icon" viewBox="0 0 1024 1024" version="1.1" xmlns="http://www.w3.org/2000/svg" p-id="6107" xmlns:xlink="http://www.w3.org/1999/xlink" width="200" height="200"><path d="M773.244 608.547c-50.448 0-91.277 40.829-91.277 91.277s40.83 91.277 91.277 91.277c50.448 0 91.277-40.83 91.277-91.277-0.102-50.448-40.931-91.277-91.277-91.277z m0-76.644c92.71 0 167.921 75.211 167.921 167.92 0 92.71-75.211 167.922-167.92 167.922-92.71 0-167.922-75.212-167.922-167.921 0-92.71 75.11-167.921 167.921-167.921zM304.07 421.695v-59.35h7.674a6.638 6.638 0 0 0 6.652-6.652v-80.839a6.638 6.638 0 0 0-6.652-6.651h-7.674v-29.676c0-7.777-3.48-14.633-8.903-19.34l-50.857-51.164-30.8 34.587 46.15 46.457v19.136h-8.494a6.638 6.638 0 0 0-6.651 6.651v80.84a6.638 6.638 0 0 0 6.651 6.65h8.493v59.351h44.41zM334.05 713.23c-17.294-65.286-76.746-113.38-147.455-113.38a152.69 152.69 0 0 0-53.109 9.516l-7.265-144.692c0-21.693 10.642-30.596 29.88-31.108l364.084-0.102 0.103-226.248h-31.006l5.014-34.178c1.842-12.893 12.587-23.638 25.07-23.638h394.681c12.484 0 22.615 10.745 22.82 23.638l0.613 34.178h-18.726v264.519c12.587 8.698 23.945 17.6 34.178 27.117 4.502 4.4 6.856 10.335 6.754 18.112V602.1c0 3.377-6.856 4.605-7.777 2.558-34.178-64.16-101.817-106.728-178.666-106.83-111.538 0-201.894 90.355-201.894 201.893 0 4.503 0.103 9.005 0.41 13.405H334.05v0.103z m222.462-492.2v298.287h42.978c19.442-18.726 41.954-34.382 66.616-46.047v-252.24H556.513z m135.585 0.103v241.597c44.41-15.145 80.532-13.405 125.864-13.405 17.089-0.921 26.196-8.903 27.322-23.945l-0.103-204.043-153.083-0.204zM186.596 685.805c-36.736 0-66.411 29.777-66.411 66.41 0 36.737 29.777 66.412 66.41 66.412 36.737 0 66.412-29.778 66.412-66.411 0-36.634-29.675-66.411-66.411-66.411z m0-55.77c-67.537 0-122.283 54.746-122.283 122.283s54.746 122.283 122.283 122.283 122.282-54.746 122.282-122.283-54.745-122.282-122.282-122.282z" fill="#367c2b" p-id="6108"></path></svg>