<?xml version="1.0" standalone="no"?><!DOCTYPE svg PUBLIC "-//W3C//DTD SVG 1.1//EN" "http://www.w3.org/Graphics/SVG/1.1/DTD/svg11.dtd"><svg t="1744870553660" class="icon" viewBox="0 0 1024 1024" version="1.1" xmlns="http://www.w3.org/2000/svg" p-id="4770" xmlns:xlink="http://www.w3.org/1999/xlink" width="200" height="200"><path d="M844.962025 740.995781l-598.683544 4.320675C193.620253 745.316456 126.649789 860.35443 126.649789 807.966245L129.350211 73.181435C129.350211 43.746835 141.232068 17.2827 208.472574 17.2827h640.270042c16.472574 0 46.177215 14.852321 46.177215 31.324895v661.333333c0 19.172996-31.054852 31.054852-49.957806 31.054853z" fill="#008837" p-id="4771"></path><path d="M894.919831 1024h-621.097046c-94.78481 0-158.244726-54.008439-158.244726-135.021097v-2.700422H115.848101V56.708861A56.708861 56.708861 0 0 1 172.556962 0h679.156118a56.708861 56.708861 0 0 1 56.708861 56.708861v642.700422a56.708861 56.708861 0 0 1-56.708861 56.70886H274.092827A131.510549 131.510549 0 0 0 142.852321 887.35865c0 81.012658 70.751055 109.637131 131.240506 109.637131h621.097046zM172.556962 27.004219A29.704641 29.704641 0 0 0 142.852321 56.708861v742.886076A157.434599 157.434599 0 0 1 274.092827 729.113924h577.620253a29.704641 29.704641 0 0 0 29.704642-29.704641V56.708861a29.704641 29.704641 0 0 0-29.704642-29.704642z" fill="#008837" p-id="4772"></path><path d="M304.877637 567.088608c-1.890295-5.670886-40.776371-140.962025 20.793249-251.679325a255.189873 255.189873 0 0 1 164.725738-119.898734 537.924051 537.924051 0 0 1 261.940929 19.983122l-8.64135 27.004219a525.772152 525.772152 0 0 0-246.818566-19.443038 228.995781 228.995781 0 0 0-147.71308 108.016878C293.535865 428.556962 331.881857 557.097046 331.881857 558.447257z" fill="#FFFFFF" p-id="4773"></path><path d="M449.350211 454.481013s-67.510549 155.274262 22.683544 181.738396c0 0 99.105485 24.303797 184.978903-87.763713 0 0 31.594937-39.156118 39.966245-137.991561 0 0 18.902954-142.042194 51.037975-179.037975a2.970464 2.970464 0 0 0-2.700422-4.860759 375.088608 375.088608 0 0 0-295.966245 227.915612z" fill="#FFFFFF" opacity=".6" p-id="4774"></path></svg>