<?xml version="1.0" standalone="no"?><!DOCTYPE svg PUBLIC "-//W3C//DTD SVG 1.1//EN" "http://www.w3.org/Graphics/SVG/1.1/DTD/svg11.dtd"><svg t="1744870505698" class="icon" viewBox="0 0 1024 1024" version="1.1" xmlns="http://www.w3.org/2000/svg" p-id="2700" xmlns:xlink="http://www.w3.org/1999/xlink" width="200" height="200"><path d="M0 0h1024v1024H0V0z" fill="#202425" opacity=".01" p-id="2701"></path><path d="M186.709333 921.6a136.533333 136.533333 0 0 1-130.082133-95.1296L0 648.533333h477.866667v238.933334a34.133333 34.133333 0 0 1-34.133334 34.133333H186.709333z m650.581334 0a136.533333 136.533333 0 0 0 130.082133-95.1296L1024 648.533333H546.133333v238.933334a34.133333 34.133333 0 0 0 34.133334 34.133333h257.024z" fill="#FF7744" p-id="2702"></path><path d="M247.9104 102.4a102.4 102.4 0 0 0-98.474667 74.274133l-34.6112 121.173334A34.133333 34.133333 0 0 0 147.6608 341.333333H443.733333a34.133333 34.133333 0 0 0 34.133334-34.133333V136.533333a34.133333 34.133333 0 0 0-34.133334-34.133333H247.9104z m528.1792 0a102.4 102.4 0 0 1 98.474667 74.274133l34.6112 121.173334A34.133333 34.133333 0 0 1 876.3392 341.333333H580.266667a34.133333 34.133333 0 0 1-34.133334-34.133333V136.533333a34.133333 34.133333 0 0 1 34.133334-34.133333h195.822933z m-697.344 329.659733A34.133333 34.133333 0 0 1 110.762667 409.6H443.733333a34.133333 34.133333 0 0 1 34.133334 34.133333v204.8H0l78.711467-216.4736zM913.169067 409.6a34.133333 34.133333 0 0 1 32.085333 22.459733L1024 648.533333H546.133333v-204.8a34.133333 34.133333 0 0 1 34.133334-34.133333h332.936533z" fill="#FFAA44" p-id="2703"></path></svg>