<?xml version="1.0" standalone="no"?><!DOCTYPE svg PUBLIC "-//W3C//DTD SVG 1.1//EN" "http://www.w3.org/Graphics/SVG/1.1/DTD/svg11.dtd"><svg t="1744870524874" class="icon" viewBox="0 0 1024 1024" version="1.1" xmlns="http://www.w3.org/2000/svg" p-id="3727" xmlns:xlink="http://www.w3.org/1999/xlink" width="200" height="200"><path d="M833.442909 93.090909H235.054545c-31.325091 0-56.971636 26.810182-56.971636 59.578182v744.727273c0 32.768 25.646545 59.578182 56.971636 59.578181h437.201455c30.254545 0 59.205818-12.567273 80.616727-34.90909l104.168728-108.916364a121.949091 121.949091 0 0 0 33.37309-84.247273V152.669091c0-32.768-25.6-59.578182-56.971636-59.578182zM562.734545 763.345455H334.801455a29.184 29.184 0 0 1-28.485819-29.789091c0-16.430545 12.753455-29.789091 28.485819-29.789091h227.93309c15.778909 0 28.532364 13.358545 28.532364 29.789091 0 16.430545-12.753455 29.789091-28.532364 29.789091z m170.961455-208.523637h-398.894545a29.184 29.184 0 0 1-28.485819-29.789091c0-16.430545 12.753455-29.789091 28.485819-29.789091h398.894545c15.778909 0 28.532364 13.358545 28.532364 29.789091 0 16.430545-12.753455 29.789091-28.532364 29.789091z m0-208.523636h-398.894545a29.184 29.184 0 0 1-28.485819-29.789091c0-16.430545 12.753455-29.789091 28.485819-29.789091h398.894545c15.778909 0 28.532364 13.358545 28.532364 29.789091 0 16.430545-12.753455 29.789091-28.532364 29.789091z" fill="#3B8DFF" p-id="3728"></path></svg>