<?xml version="1.0" standalone="no"?><!DOCTYPE svg PUBLIC "-//W3C//DTD SVG 1.1//EN" "http://www.w3.org/Graphics/SVG/1.1/DTD/svg11.dtd"><svg t="1744870811147" class="icon" viewBox="0 0 1024 1024" version="1.1" xmlns="http://www.w3.org/2000/svg" p-id="20459" xmlns:xlink="http://www.w3.org/1999/xlink" width="200" height="200"><path d="M192 960a64 64 0 0 1-64-64V128a64 64 0 0 1 64-64h640a64 64 0 0 1 64 64v768a64 64 0 0 1-64 64H192z m64-832h-64v768h64V704a64 64 0 0 1 60.8-63.92L320 640h384a64 64 0 0 1 64 64v192h64V128h-64v224a64 64 0 0 1-64 64H320a64 64 0 0 1-64-64V128z m448 576H320v192h384V704z m0-576H320v224h384V128z m-112 64a48 48 0 1 1 0 96 48 48 0 0 1 0-96z" fill="#0D0530" p-id="20460"></path></svg>