<?xml version="1.0" standalone="no"?><!DOCTYPE svg PUBLIC "-//W3C//DTD SVG 1.1//EN" "http://www.w3.org/Graphics/SVG/1.1/DTD/svg11.dtd"><svg t="1744870687310" class="icon" viewBox="0 0 1024 1024" version="1.1" xmlns="http://www.w3.org/2000/svg" p-id="10203" xmlns:xlink="http://www.w3.org/1999/xlink" width="200" height="200"><path d="M512 512m-512 0a512 512 0 1 0 1024 0 512 512 0 1 0-1024 0Z" fill="#E6C600" p-id="10204"></path><path d="M324.608 853.333333a27.605333 27.605333 0 1 1 0-55.210666H385.706667v-75.52a257.493333 257.493333 0 0 1-77.653334-53.504c-119.466667-118.698667-82.048-309.290667-19.797333-371.2 48.938667-48.597333 138.112-21.930667 219.904 37.418666a11.008 11.008 0 0 1 4.266667 10.666667l-7.253334 45.994667-5.632 2.517333a11.434667 11.434667 0 0 1-11.904-1.664C422.4 337.92 357.248 314.112 330.24 339.157333c-33.024 30.592 3.285333 122.666667 81.066667 205.610667s167.722667 125.397333 200.789333 94.805333c25.6-23.594667 9.685333-83.925333-34.773333-148.352l5.290666-9.856 50.090667-16.085333c52.394667 81.066667 71.082667 170.666667 24.277333 217.130667a257.578667 257.578667 0 0 1-215.850666 57.258666v58.453334h105.557333a27.605333 27.605333 0 1 1 0 55.210666z m144.213333-342.144l-6.229333-6.186666a29.184 29.184 0 0 1 2.218667-44.202667l65.749333-53.461333a37.802667 37.802667 0 0 1 36.778667-5.418667 32.597333 32.597333 0 0 1-6.741334-20.010667 30.933333 30.933333 0 1 1 31.104 32.298667 29.866667 29.866667 0 0 1-18.944-6.656 36.992 36.992 0 0 1-5.504 36.352l-53.802666 65.066667a29.610667 29.610667 0 0 1-44.629334 2.176zM749.269333 413.866667a192.896 192.896 0 0 0-188.544-196.522667V170.666667a238.677333 238.677333 0 0 1 233.429334 243.2z m-79.402666 0a115.584 115.584 0 0 0-32-80.554667 106.154667 106.154667 0 0 0-77.141334-33.408V253.312A157.568 157.568 0 0 1 714.88 413.866667z" fill="#FFFFFF" p-id="10205"></path></svg>