<?xml version="1.0" standalone="no"?><!DOCTYPE svg PUBLIC "-//W3C//DTD SVG 1.1//EN" "http://www.w3.org/Graphics/SVG/1.1/DTD/svg11.dtd"><svg t="1744870872819" class="icon" viewBox="0 0 1024 1024" version="1.1" xmlns="http://www.w3.org/2000/svg" p-id="24624" xmlns:xlink="http://www.w3.org/1999/xlink" width="200" height="200"><path d="M987.428571 1003.885714v1.828572H36.571429v-1.828572a27.318857 27.318857 0 0 1-18.285715-25.6v-182.857143a27.428571 27.428571 0 0 1 54.857143 0V877.714286h877.714286v-82.285715a27.428571 27.428571 0 0 1 54.857143 0v182.857143a27.300571 27.300571 0 0 1-18.285715 25.6zM374.582857 324.388571a137.362286 137.362286 0 1 1 274.614857 0H374.582857zM176.658286 585.325714a31.286857 31.286857 0 0 1 0-62.537143h106.971428a329.344 329.344 0 0 1 13.622857-59.977142l-90.898285-53.942858a31.652571 31.652571 0 0 1-11.099429-42.605714 29.952 29.952 0 0 1 41.526857-11.52l86.070857 51.017143a283.574857 283.574857 0 0 1 22.198858-32.548571l9.142857-11.702858 315.648 0.365715 9.142857 11.154285a302.226286 302.226286 0 0 1 22.838857 33.28l85.942857-50.651428a29.842286 29.842286 0 0 1 41.526857 11.702857 31.652571 31.652571 0 0 1-11.264 42.605714l-90.715428 53.394286a327.04 327.04 0 0 1 13.129143 59.428571h106.88a31.286857 31.286857 0 0 1 0 62.537143h-104.502858a336.347429 336.347429 0 0 1-9.472 64l84.205715 49.92a31.890286 31.890286 0 0 1 11.099428 42.788572 30.445714 30.445714 0 0 1-26.368 15.542857 28.854857 28.854857 0 0 1-15.158857-4.205714l-75.154286-44.617143a241.718857 241.718857 0 0 1-141.147428 130.925714 30.628571 30.628571 0 0 1-8.978286 1.462857c-12.964571 0-45.842286-291.84-49.828571-305.371428-5.485714 16.457143-50.011429 307.382857-65.828572 301.531428a245.12 245.12 0 0 1-134.381714-129.28l-75.629714 44.617143a30.134857 30.134857 0 0 1-41.508572-11.702857 31.524571 31.524571 0 0 1 11.227429-42.605714l84.626286-49.92a331.136 331.136 0 0 1-9.380572-63.085715H176.621714z m801.609143-329.142857a27.428571 27.428571 0 0 1-27.428572-27.428571v-82.285715H73.142857v82.285715a27.428571 27.428571 0 0 1-54.857143 0v-182.857143a27.318857 27.318857 0 0 1 18.285715-25.6v-1.828572h950.857142v1.828572a27.300571 27.300571 0 0 1 18.285715 25.6v182.857143a27.428571 27.428571 0 0 1-27.428572 27.428571z" fill="#4ABF78" p-id="24625"></path></svg>