<?xml version="1.0" standalone="no"?><!DOCTYPE svg PUBLIC "-//W3C//DTD SVG 1.1//EN" "http://www.w3.org/Graphics/SVG/1.1/DTD/svg11.dtd"><svg t="1744870859358" class="icon" viewBox="0 0 1024 1024" version="1.1" xmlns="http://www.w3.org/2000/svg" p-id="23635" xmlns:xlink="http://www.w3.org/1999/xlink" width="200" height="200"><path d="M512 1024a512 512 0 1 1 512-512 512 512 0 0 1-512 512z m39.384615-213.228308l385.063385-385.102769a429.292308 429.292308 0 0 0-44.032-120.241231L551.384615 646.459077v164.312615z m393.019077-281.639384L551.384615 922.151385v21.070769a432.836923 432.836923 0 0 0 393.019077-414.089846zM78.769231 512a433.230769 433.230769 0 0 0 393.846154 431.222154v-38.557539l-7.601231-7.561846 7.601231-7.561846v-260.529231l-7.601231-7.60123 7.601231-7.561847V353.28l-7.601231-7.561846 7.601231-7.561846V80.738462A433.230769 433.230769 0 0 0 78.769231 512z m472.615384-252.612923l140.8-140.8A431.104 431.104 0 0 0 551.384615 80.738462v178.648615z m211.416616-100.036923L551.384615 370.766769v164.312616l296.251077-296.251077a434.530462 434.530462 0 0 0-84.834461-79.478154z" fill="#287D97" p-id="23636"></path></svg>